<mxfile host="999d3463-2a21-4363-8c6f-4f3c3ee4d0e1" modified="2020-08-11T11:22:46.559Z" agent="5.0 (Windows NT 10.0; Win64; x64) AppleWebKit/537.36 (KHTML, like Gecko) Code/1.47.3 Chrome/78.0.3904.130 Electron/7.3.2 Safari/537.36" etag="tQcTRX8ZOPlmP9liGxKa" version="13.1.3">
    <diagram id="ldbaBMDJLIObigYqWS9Z" name="Page-1">
        <mxGraphModel dx="1785" dy="1641" grid="1" gridSize="10" guides="1" tooltips="1" connect="1" arrows="1" fold="1" page="1" pageScale="1" pageWidth="827" pageHeight="1169" math="0" shadow="0">
            <root>
                <mxCell id="0"/>
                <mxCell id="1" parent="0"/>
                <mxCell id="76" value="" style="rounded=1;whiteSpace=wrap;html=1;" parent="1" vertex="1">
                    <mxGeometry x="-367" y="-140" width="1077" height="1090" as="geometry"/>
                </mxCell>
                <mxCell id="21" value="" style="rounded=1;whiteSpace=wrap;html=1;" parent="1" vertex="1">
                    <mxGeometry x="-20" y="450" width="628.75" height="460" as="geometry"/>
                </mxCell>
                <mxCell id="31" value="" style="rounded=1;whiteSpace=wrap;html=1;" parent="1" vertex="1">
                    <mxGeometry x="217.2" y="700" width="352.87" height="180" as="geometry"/>
                </mxCell>
                <mxCell id="27" value="" style="rounded=1;whiteSpace=wrap;html=1;" parent="1" vertex="1">
                    <mxGeometry x="217.2" y="490" width="352.87" height="191" as="geometry"/>
                </mxCell>
                <mxCell id="14" value="" style="rounded=1;whiteSpace=wrap;html=1;" parent="1" vertex="1">
                    <mxGeometry x="-200" y="-30" width="780" height="380" as="geometry"/>
                </mxCell>
                <mxCell id="7" value="API Gateway" style="outlineConnect=0;dashed=0;verticalLabelPosition=bottom;verticalAlign=top;align=center;html=1;shape=mxgraph.aws3.api_gateway;fillColor=#D9A741;gradientColor=none;" parent="1" vertex="1">
                    <mxGeometry x="299.38" y="5" width="76.5" height="93" as="geometry"/>
                </mxCell>
                <mxCell id="12" value="Lambda" style="outlineConnect=0;dashed=0;verticalLabelPosition=bottom;verticalAlign=top;align=center;html=1;shape=mxgraph.aws3.lambda;fillColor=#F58534;gradientColor=none;" parent="1" vertex="1">
                    <mxGeometry x="460" y="50" width="76.5" height="93" as="geometry"/>
                </mxCell>
                <mxCell id="15" value="" style="endArrow=classic;html=1;entryX=0;entryY=0.5;entryDx=0;entryDy=0;entryPerimeter=0;" parent="1" source="7" target="12" edge="1">
                    <mxGeometry width="50" height="50" relative="1" as="geometry">
                        <mxPoint x="320" y="205" as="sourcePoint"/>
                        <mxPoint x="440.75" y="183.55766710353862" as="targetPoint"/>
                    </mxGeometry>
                </mxCell>
                <mxCell id="17" value="Cloudformation" style="outlineConnect=0;dashed=0;verticalLabelPosition=bottom;verticalAlign=top;align=center;html=1;shape=mxgraph.aws3.cloudformation;fillColor=#759C3E;gradientColor=none;" parent="1" vertex="1">
                    <mxGeometry x="310" y="180" width="76.5" height="93" as="geometry"/>
                </mxCell>
                <mxCell id="18" value="API Gateway&lt;br&gt;Offline" style="outlineConnect=0;dashed=0;verticalLabelPosition=bottom;verticalAlign=top;align=center;html=1;shape=mxgraph.aws3.api_gateway;fillColor=#D9A741;gradientColor=none;" parent="1" vertex="1">
                    <mxGeometry x="270.5" y="542" width="76.5" height="93" as="geometry"/>
                </mxCell>
                <mxCell id="19" value="Lambda&lt;br&gt;Offline" style="outlineConnect=0;dashed=0;verticalLabelPosition=bottom;verticalAlign=top;align=center;html=1;shape=mxgraph.aws3.lambda;fillColor=#F58534;gradientColor=none;" parent="1" vertex="1">
                    <mxGeometry x="461.25" y="542" width="76.5" height="93" as="geometry"/>
                </mxCell>
                <mxCell id="20" value="" style="endArrow=classic;html=1;entryX=0;entryY=0.5;entryDx=0;entryDy=0;entryPerimeter=0;" parent="1" source="18" target="19" edge="1">
                    <mxGeometry width="50" height="50" relative="1" as="geometry">
                        <mxPoint x="340.5" y="532" as="sourcePoint"/>
                        <mxPoint x="461.25" y="510.5576671035386" as="targetPoint"/>
                    </mxGeometry>
                </mxCell>
                <mxCell id="22" value="" style="endArrow=none;dashed=1;html=1;" parent="1" source="7" target="17" edge="1">
                    <mxGeometry width="50" height="50" relative="1" as="geometry">
                        <mxPoint x="280" y="200" as="sourcePoint"/>
                        <mxPoint x="330" y="150" as="targetPoint"/>
                    </mxGeometry>
                </mxCell>
                <mxCell id="23" value="" style="endArrow=none;dashed=1;html=1;" parent="1" source="12" target="17" edge="1">
                    <mxGeometry width="50" height="50" relative="1" as="geometry">
                        <mxPoint x="332.69444444444434" y="225" as="sourcePoint"/>
                        <mxPoint x="363.80555555555566" y="183" as="targetPoint"/>
                    </mxGeometry>
                </mxCell>
                <mxCell id="25" value="npm run offline" style="text;html=1;strokeColor=none;fillColor=none;align=center;verticalAlign=middle;whiteSpace=wrap;rounded=0;" parent="1" vertex="1">
                    <mxGeometry x="85.88" y="560" width="140" height="20" as="geometry"/>
                </mxCell>
                <mxCell id="26" value="Node.js" style="outlineConnect=0;dashed=0;verticalLabelPosition=bottom;verticalAlign=top;align=center;html=1;shape=mxgraph.aws3.android;fillColor=#8CC64F;gradientColor=none;" parent="1" vertex="1">
                    <mxGeometry x="361.5" y="775.01" width="73.5" height="84" as="geometry"/>
                </mxCell>
                <mxCell id="29" value="" style="endArrow=classic;html=1;" parent="1" target="27" edge="1">
                    <mxGeometry width="50" height="50" relative="1" as="geometry">
                        <mxPoint x="95.88000000000011" y="588.1447128835989" as="sourcePoint"/>
                        <mxPoint x="175.88" y="600" as="targetPoint"/>
                    </mxGeometry>
                </mxCell>
                <mxCell id="30" value="serverless offline" style="text;html=1;strokeColor=none;fillColor=none;align=center;verticalAlign=middle;whiteSpace=wrap;rounded=0;" parent="1" vertex="1">
                    <mxGeometry x="321.25" y="510" width="140" height="20" as="geometry"/>
                </mxCell>
                <mxCell id="32" value="" style="endArrow=classic;html=1;" parent="1" edge="1">
                    <mxGeometry width="50" height="50" relative="1" as="geometry">
                        <mxPoint x="95.88000000000011" y="625.9041765794345" as="sourcePoint"/>
                        <mxPoint x="207.19999999999993" y="730" as="targetPoint"/>
                    </mxGeometry>
                </mxCell>
                <mxCell id="34" value="npm run dev" style="text;html=1;strokeColor=none;fillColor=none;align=center;verticalAlign=middle;whiteSpace=wrap;rounded=0;rotation=45;" parent="1" vertex="1">
                    <mxGeometry x="95.88" y="660" width="140" height="20" as="geometry"/>
                </mxCell>
                <mxCell id="35" value="Local Development" style="text;html=1;strokeColor=none;fillColor=none;align=center;verticalAlign=middle;whiteSpace=wrap;rounded=0;" parent="1" vertex="1">
                    <mxGeometry x="225.88" y="460" width="150" height="20" as="geometry"/>
                </mxCell>
                <mxCell id="36" value="Deployment of Microservice in AWS" style="text;html=1;strokeColor=none;fillColor=none;align=center;verticalAlign=middle;whiteSpace=wrap;rounded=0;" parent="1" vertex="1">
                    <mxGeometry x="90.88" y="-20" width="199.12" height="20" as="geometry"/>
                </mxCell>
                <mxCell id="37" value="" style="endArrow=classic;html=1;" parent="1" target="17" edge="1">
                    <mxGeometry width="50" height="50" relative="1" as="geometry">
                        <mxPoint x="88.18607734806642" y="548.5" as="sourcePoint"/>
                        <mxPoint x="251.31999999999982" y="474.1" as="targetPoint"/>
                    </mxGeometry>
                </mxCell>
                <mxCell id="38" value="npm run deploy" style="text;html=1;strokeColor=none;fillColor=none;align=center;verticalAlign=middle;whiteSpace=wrap;rounded=0;rotation=-51;" parent="1" vertex="1">
                    <mxGeometry x="120.44" y="380" width="140" height="20" as="geometry"/>
                </mxCell>
                <mxCell id="44" value="" style="endArrow=classic;html=1;" parent="1" source="48" target="7" edge="1">
                    <mxGeometry width="50" height="50" relative="1" as="geometry">
                        <mxPoint x="357" y="106.5" as="sourcePoint"/>
                        <mxPoint x="470" y="106.5" as="targetPoint"/>
                    </mxGeometry>
                </mxCell>
                <mxCell id="46" value="" style="endArrow=classic;html=1;" parent="1" source="49" edge="1">
                    <mxGeometry width="50" height="50" relative="1" as="geometry">
                        <mxPoint x="-90" y="96.01247820677446" as="sourcePoint"/>
                        <mxPoint x="-23.864099132926867" y="82.45596282515226" as="targetPoint"/>
                    </mxGeometry>
                </mxCell>
                <mxCell id="47" value="For Rapid Development" style="text;html=1;strokeColor=none;fillColor=none;align=center;verticalAlign=middle;whiteSpace=wrap;rounded=0;" parent="1" vertex="1">
                    <mxGeometry x="328.25" y="720" width="140" height="20" as="geometry"/>
                </mxCell>
                <mxCell id="48" value="Route53" style="outlineConnect=0;dashed=0;verticalLabelPosition=bottom;verticalAlign=top;align=center;html=1;shape=mxgraph.aws3.route_53;fillColor=#F58536;gradientColor=none;" parent="1" vertex="1">
                    <mxGeometry x="130.63" y="53.75" width="70.5" height="85.5" as="geometry"/>
                </mxCell>
                <mxCell id="49" value="Users" style="outlineConnect=0;dashed=0;verticalLabelPosition=bottom;verticalAlign=top;align=center;html=1;shape=mxgraph.aws3.users;fillColor=#D2D3D3;gradientColor=none;" parent="1" vertex="1">
                    <mxGeometry x="-140" y="20" width="66" height="63" as="geometry"/>
                </mxCell>
                <mxCell id="50" value="Apps" style="pointerEvents=1;shadow=0;dashed=0;html=1;strokeColor=none;fillColor=#505050;labelPosition=center;verticalLabelPosition=bottom;verticalAlign=top;outlineConnect=0;align=center;shape=mxgraph.office.servers.application_server_green;" parent="1" vertex="1">
                    <mxGeometry x="-130" y="143" width="46" height="56" as="geometry"/>
                </mxCell>
                <mxCell id="53" value="" style="endArrow=classic;html=1;" parent="1" target="48" edge="1">
                    <mxGeometry width="50" height="50" relative="1" as="geometry">
                        <mxPoint x="40" y="96.0824782067744" as="sourcePoint"/>
                        <mxPoint x="100" y="96.57499999999999" as="targetPoint"/>
                    </mxGeometry>
                </mxCell>
                <mxCell id="54" value="" style="endArrow=classic;html=1;entryX=0;entryY=1;entryDx=0;entryDy=0;" parent="1" source="50" edge="1">
                    <mxGeometry width="50" height="50" relative="1" as="geometry">
                        <mxPoint x="-64" y="73.78767310603143" as="sourcePoint"/>
                        <mxPoint x="-17.279429595932697" y="115.89440928116687" as="targetPoint"/>
                    </mxGeometry>
                </mxCell>
                <mxCell id="55" value="" style="endArrow=none;dashed=1;html=1;" parent="1" source="48" target="17" edge="1">
                    <mxGeometry width="50" height="50" relative="1" as="geometry">
                        <mxPoint x="350.76346153846157" y="152.9999999999999" as="sourcePoint"/>
                        <mxPoint x="376.23653846153866" y="190" as="targetPoint"/>
                    </mxGeometry>
                </mxCell>
                <mxCell id="58" value="https://yourdomain.com" style="text;html=1;strokeColor=none;fillColor=none;align=center;verticalAlign=middle;whiteSpace=wrap;rounded=0;" parent="1" vertex="1">
                    <mxGeometry x="145.88" y="30" width="40" height="20" as="geometry"/>
                </mxCell>
                <mxCell id="66" value="" style="shape=image;verticalLabelPosition=bottom;labelBackgroundColor=#ffffff;verticalAlign=top;aspect=fixed;imageAspect=0;image=data:image/png,iVBORw0KGgoAAAANSUhEUgAAAW8AAACJCAMAAADUiEkNAAAAxlBMVEWHvkBUgDn////+/v6Gvj9UgDiAujJ+uS7y+OpRfTiEvDqCuzZRfDh8uCqOwVCIwD/M47H6/fdLei3A3J/8/flFdiWDuT9KeSt4rD3v9uVbiTl+sz7G36lklDpcijn2+vDo8tyoznmBoHCfymzN2cbh7tDd5dhrnDu21o/S5ruNwUm62Jez1YrR5bnb68hypTy0xqpji0qVxVrk6+Cds5DG1L6Oqn90lmF/nm6UxFikzXOcyWdxk12s0YCyxaiMp31mjVCZsYoTsl0nAAAUFElEQVR4nO1dDXuiOhNFDKAgIkq1VluwrW3Fj3btdner6378/z/1JjMT1JZQtXZ37/vk3OfeW0jE5GQ4mZkENAwNDQ0NDQ0NDQ0NDQ0NDQ0NDQ0NjcPAWGAEHOKvv92W/28wzjIz2u3eKaDXa7cNIzA06x8AbtWBcXp/e3FmVWsSJevs/Pa0Z4hh0DgeONft0/MzTnS19AKCfOv8XnBuaEs/CiTZyLX1knFBerV0cdvTfB8B3LR755bgOo9oglUSInNxb3Bd0ZwfCsEc1+yL6isRyee8WrNue1rJDwZnLtiVbQJnvB387Xb/JyGEIehdcCEp0JE8xku3hmZ8X4CUtM+r+7JdsqxS7ew+0JHQnuDu9qlVK5wklajWzrWo7InAON9bStaoWfc67NwZME+e1Q7kmmz8VlxGU74D+EwZ3JcON24y8Yu2Djh3A2O37zNuAata7Wm63wa3bnZeFX7Ge1G1TvWs+TbETPlurgW4hWvC3wRrX9Teb9tIeKl2b2gNL4AIKi/2id/fhLbwAoB2H8u6EVpSChEcwTPZhFWyejryUSK4Py7dIkl71v7bvfpXwYJe7Z1RTg5qFzolngcu3u2zo86VCKt2qyU8F8GRHO8XfJeqWsLzIMQ7X00g2CwWmqLS6pmm+yUYM9pHl+6McK0or8FdwRzCxanmCaBoODpQo6PKutT0+sMrnCrmyqZ1+XB9w/FJTXjnMy+/fvr8vZNbx6peaEF5gUARxzcvHyMTUMD3yRNWCZ8UlXSY+QLBab5vcvLbNMscZrmQ7wcTqpnmY76kcAPXFr4BkabKI8r6Joy7DFwW842DUjavm7m+CmQKNSSU5v1EZO+iJ0B59LWZa+BnOsrMwFigMO9mhGxfPz08KNnmIv/z4eHp0YRx+XGSW6WmFXwDvfzJ0voqrNaMLjsnnXzXA6uVmp3OSfMJpOcmn+/queY7Q3CucE4+Czkxr/Mp3OAbKn+NROVYVamnBYXADAVHnQfg+0euJL9m/RF8wl/5N8IeaasPHRjFxYv8p2O3RzVbljowXZpfduK7ZN0IQYm+KlzwM/aWTwjFjOXVU32Svf6Tf9xVfFP+aZZ9TvEdL1r04u/c9haAGUwhJ6XmNfB9uRvfnWth39E3hdBX3xYUZju+HRiu4/seVPYchCtryBOvz7jQd3EUpKnh+Y63zZDn+LyO5/uOnYFRoWuL6vxrt8sEjy6/IBZ5m83kwE/z8sDw7H0IV2eqmtcwBe7Dd1nJ95uC4jrz8awbh2EYJ6PxnHfInTT6Ao050eut8MTGmUFWhZNdn0yTShiZUZxMV2zNAv9zNUriMIq7w0ZL4s6lEbvqDytxFMbDUVbWehaFng1FokWNlSuvl7bgK1NuqfZiVuENHm0M7ttQpU4O4Zs7Myr7vihqAzO8+ig01wiHd6nTooMWddUdmi/OODM68eyywSyESMGE/5YrE1dKhTfumq+RAEvechjlFA443/Zio6jcvcPrsXoMJ1b8Hhxh+XAfvtWLxMfk2ypV22pBYbxvFZkUkBFWhS1NjFpnDtaqV4hLc0Y99GJxpmwmdpqY64/i/6Y+EuSO6FQZgPSVkW9nElKoZmZl4pILlzn9Fy0a2i62AhIcU8eewXXKe/Kt3HJCfH/bje8TofZq+y4Oedw5dHij08ByF9ms0J2/MCUj3RRmKXcZQQWzYXtDNGwggMDvc37Tu0TLhvHDvCT49lamTFjgSTkYCw8+Jm8WvGy3zqcJMeriTNfvy2vuwzdTLzQQ3wqPI4dvsG/V6BQJOHOH5pomysZwxZxBj8shyrU9po7zGGwJZ7wxVjBXrrsoZ4OF5moK1uBTxGQYh5K/MrLkPldogKI4psGACuHCb1C97ANlJFbyHU3iQ/gOTpV7j9HDM7/vxncHsiiR0nssEnB3mVlu3I3JhG3m3REDd9AhnyxO0LmCM84ITTAUpSjuYTfpZswNucz7Mdlnvx48j6SNx6MJn/CcPo1fchWkkwgvVo6Grbl3lRn8cDSL5cEdvyDwLW8maMxefBdsOrmB6xZkqrb4/gGN+NxRlFsFW1FsSWxladteuhAdHNvclOg+H4GAByDfs1j0vCHOMNZF8xs6oDZmt780uDOXSlrjOXOvyDi5mjPXHpLee45wOb0KHsbcZzf8O7pZrnzbZQkZfpLaju32yc4rLunJOpG3r33fquTb+gQRY9Tcje/mb4xGldF/QUhvt4jvsS/ExbOfx0md17a72LXEFnHFPBQcTBKgQTgobp24bDnCj25MDBt8CNdNiPCVZ/fx0uEVeHgTLAhBj9x5hF87hfFMYyS1YXM/k+QtSWGOBHVBXSe+cQDCWevurjV2VR3L4Vs5XVrfISPyWLh0ucH3tzeyLQWrPHafenDn4wkeU4g+8G6iyQk6QV3K5rMQ9XKcGjDbob4Al2wdk4DS40B4I7JMmGHdZzmwMF4Dmg1Rr+whja4r/EwcyYGHUWRKIz+yjQ2+p6kP0dHudBtMucun8xva9vRGuiobnk+RuMNC5e1Qu1fz3SJzqlzJ0BEDzBXRs+BnnangIIS65Qgc5CnKQTfNeoP/42aMn2s40mfvwnVZSgz3nXU1szzA+Zic+YRXi+WV6YryqxKpJ+Kw7+ydW2GG0npPbsCefr+aABWfaN6AKf7sKKoUOCiCVzTksJVudII9k8ct4hsngQ77K2iWOOMmWDoSBgYOInNdz7Ntf7XJdxn5Zpt8N17zzZBvQbK7iHD8Z46LcCbkmtbXfPMZfX++27nmbTU7uEpmPn5CMsV+h4xZflDaPIASSt/G30+4iecQXpAD5zFbmZwDM2zU/XV6hOY3PiOxFG9ovw7VZr7B5nGZVBorO3a6HEzGrVZ/Jvn2N/TEyPTEFIrPjxb5esIDUqJ0thggFnQHcuHP+B47B+QOe7nuyfdvv2+w++hvNL8+PP2Wj/U0v/54+CwZ5QdPeGBZML+a0Y/Lrzk+jVW9UDvgXsPM4j4zHC09YhyFRkQa6GiAXYNT0nXIPPk5mNM8tmgkYbQOEYlvkvJosTlfRjBErB6R7wIKDCIiPCDPoUlWeny0Zi5CgStX+ic4Ax+Hb7ELAr7kBuS480UkCq6xTB6gUf8UBzdg4c3LSHb282svvJBvxkk017FKOEpteLeHdMyjK9fG8Hrgwm0vplCfBikRk6yzHGYxYhb3cL7Jh+Gi47vMdVBdynEd1MUhry80uDT4GDxx2/d8cijXLp+8Ih82OV/GzwdkxhXJ70fMNxDd1qcQjh9g6rQi6AE4fnySxBK4C04uIwqoc/guFfFtuOlQxhfYszuc9F0ypjsRsPNvCusMPDzuObg+iY3QYn4jyBSJmV1D8A1REpyYLtMrqTOUkbFX5Ed3V/X5mFiNuF80MvPB+fakfVfqx+QbLvlDGjFGYbA42bwkyxcUoxPID1A/Ol8fkYJc+z4rysi6Rj+mQUZw4WCQAESf2Em7gowuD8JxwuzbXgh/CG3AgImSJFEYRmWp3/wWiSmIDOOIxpTSAfxb6fI8ng9NuoAYI8l32XyBjG/z+HxzX9BqZnxzPGZ884Y8djYOiO+TbwfzzW/u+VTeuHBN4fqSJ80nTB9p44YpohShsjbNfcIV9+LMwZneLa7m0v/m3Bn2hJikNKCJsSuNcmVLpcVsyYuknoihe4G1nhzGt0K/KZp9pOXIR+gLSkgT7fAz+n0bB8JDIdHbW09ArP20H2diINwtfnqOW45i4eKVIZIkchNu5+ipOCIUoqlzxHgw7tqTDb4Ne5lIMlEwWn7GlOtOQ1NmuiBbwlwZZ8HAsFd4F98sn++biLyzG/BJmj/F3UbzZfNnbK7ny0tRAjJvNX8SV1G0P9+0slXvk6Xyf+ZikczDnGyUjk1p9LjIENfJd+HGaktd7oJjw7wtvpmPqShShOFiM91h15MsV8Y5bAm61/mFxiu+jffxbbTz+LY+/fr5RBIOc2Tz048fP6UD3uEHX2SU3/z1+eFnc9MfjH98/ZU3hjvtQWF+HbOA/N+JSF/7FNgtIbqMRWbWgQjTXI7AMIUWUxCJ5m9sxPOCb+ZB8sNMKnGlO+xfOVt0DyAd2e3GcSUZTQJalhxQYmUrE0X0vs++FfGO1Tz5jDcyKorV6TSzso0DWWJBghB0/deJlbtts4jvzYV2XxprS3SWQnpzBZQm4EQP4ItW6Nsl4tOUnypPkB9b6i/o9whuuzEXEcZDoi2nWaRdhTaJs67j4DI1v14d43k+mFupP3Ai38e3Op7vUDyvSrC+GCGI53n9S1X9gniepa6XNT5Lzo5FX91nTD734bZvQJgyB81pdaF9I3vNt4l845KX9E+uQEwq6eaWh2wTxBDERMyfW+TZQ1K12WZ2wfXS9/JtGGe5ewc5f50v5gH5qlhZvTBflaxcH5Ophi+DOyQPEiC845CMxcjdhUzKCAdCnMr0BPTa9SmGh2OhxfwC4cKnrRO2JxeSISMAa5H+uhDK7JVJwc8U92Zwrh1/Mevb7+W7MB+bOYE70C1cQ/6Peniqp8p0g4hW4tFkmXq2l95FqA3ms0tlgry4nEXukKzjIxvhKWas58toxWx3PpNupeQb5t9ZH7c6jCdXqY2vH8IMjBAUuU3ibvAsplyG6w3ik8mqzt3G+nzV74ow4N18K9cbSrVHcDZ2Wy7O1huU8mP1lOk0G3c+hN1kmHSlZXVp7loSXyKkwwwRuB90EoJ5byz9QTNJEhnfIN/eoLxeLSYXpds3SJcTc71mj4hnS/7F7sLMFpkrSdKt4M30fr6Nt9bTinZ+bwJ3G5Zfp28litbTZP4bVQD7T3MfsykXbWJS0IB1nSycFIlsxtIoIxy9m8SUfIP7SOvMWVhjxjARMrEIR2mXdRkPXbmqtWQElbXqKHwHis3I6wlwt/Vii9aLfyrXi8/VzQP7LhMrJqrBCBMozPBlzE2rMkJM48xUB7hw3KfsCUUu/aso03OWzl6G5bxKRa75x+Z2qUyue32Z/ZLnj8L3P7EfAua0zDjhr2km9lRYLpezDKgzlOF5BZd2mNjuk23bMaeeCJPKZN/e4jWnJqasPP95ZuaMhohr7LtonReUrUK+8asP0xPFww2lP7nfx10kkbQtQDLws3cts6XcVRZn49OX3FCiz3C9WcZXOHaYjSsGDd/1GqG5kSGRd5AZPTPDWSVbWoLslsn1d9JGvB4fUyz/i02DtJ/NjA/kO/dJ1w2+j7N/sGSp97Px6cld3o14ACjAY8CFsRVm9BuIbB3cvaIz0yw2Z+5gBJ8ftuZivqtD8cqpD0mEQ7h4KMdOuJteP0IFi6AwDDMFEetJkF6YTJMYWzVrDQyYwVNqTj81DkHwp/ZrFmcHXdv3jLRer6eMO8HbZbZ0jtdpJrkx2Vv7mJ4T8I8buLJvMCyGNTIR7oyveGH9eb4Yy9io5U8ofzUdPEPhcjWiCTKhy/KAFFqVphvR56vW7AXWPlOsAO/H98kb+5HV0c5GW7IQ8MC+MBmQ0wXEahrsgOJxPOab+Ljizk6zn5LjuOQhDZZ5co0nW5ffbtURwK+kehHHAfvt1XzvsN/+OP3ZjsthH4lYlVmPIOx7FfZNS+5Tf13fnZtb9v0R+BPPk1h/6QlMt5u5btnX+1PSbwz0pZOJ9Sm4Gh6yFLwjlCkr+bxUZ5fXLOHut3KkeF6quoucHL9rDJdvwuWaP+85BBuO6rSo0FjbN6MduRDxfBhUIb18HnCnBGHzKzxdEKteWlOw2/7jwDzS6plIUoFC20t61iHxyb7Dui3LDLkzf/6B9m2wnsJkv6Nv+mWX959YKPb/2POuzohcvORubgTG82I8lH7+yh/Q7pOwf5UGRrqcjOQe8KH/9qUPBlM98Go1Q8whPD49qV61Aab9++npGoMKVbqq1vs7PzKAu/BRPwTkWnTZHHnMkHuOuQwKZJFN5UPNG2fMPDrFiwhkwubt9xWIWyH/fQViq8/feSMHc2amzDVlkaIQjITT7Q1k2suUHYAT8WKP/dyHNUth4N+jLI301vtPsOJTvnn/vRfOMGO2keQjss0Id7bad+WtQgznk7r3wQ85i10RuW+van6hlM2bfGPq4Ub1vpm/90o85rUqG/kTSHyM5h5ERMxeDMsbuRUR9Scr92PFBBqlWOWxOt9uzB31hFvNg8I5qZ3+xdefMLs+Hmb5WzOZ3dWdbEHNswfT9bOZ8bB15X20lmCjerlbiMVu40+fH56un64L3xd2ff309OOyqXBiqud/oguqngnGfduYLwaDxTL16FnxddbF94PnK1H2HNi+8/G2jRBZQoXn3Ow0OYredWo1AYc86fqnABvxXdfNa8lW2R9qKiw7KBbqd/ndo4Ia/6E3yP45u2DqtOy7YJX02wfzwYOeD3ilqX7lugKMtY/72w2Emv5tLwUKVo4PhWXV9IvClAjuj27g1Yt/wDf5V8HUTuFhsKqW/vmGIhzjp9O2CO/pX60rAGfm4piE6/civwFcPD6WpIhfbtAoxLEIh6BUW/ebYPA7JUcwcEv/HuNuYPjGn3dSbtXO9I827AZO+Cm3zvcQbpWq59rv3h1B732/F12t3eofENgHPPKpHp69qp319Ovs9wMzDvtJdD5GVa4lOkW1NwLjtrqvZyhq1y7+5mLlfxlB+7y6XwLL4lJyH+gQ/kAExunFXozXrFvtBb4HQdA7L+2k49wF5Lbd1lLyTgRB+/asWlO+Y5bAvZnzUyY2rWnC3wkWGL1zS1Cuijp52QU37cDQbB8HjOvK/Tk381p1m3V+pmZd3J4KsjWOBthsx8389Pb84gxcbMG7ZZ1dnN+ftrnmaLP+CHAzD4x2u9frnZ6e8v+2hbxrrj8YOCce9Rk5jTfBdFCjoaGhoaGhoaGhoaGhoaGhoXEM/A8DIJ9c8l7MVwAAAABJRU5ErkJggg==;" parent="1" vertex="1">
                    <mxGeometry x="468.25" y="4.99" width="67" height="25.01" as="geometry"/>
                </mxCell>
                <mxCell id="68" value="" style="endArrow=none;dashed=1;html=1;exitX=0.5;exitY=1;exitDx=0;exitDy=0;" parent="1" source="66" target="12" edge="1">
                    <mxGeometry width="50" height="50" relative="1" as="geometry">
                        <mxPoint x="472.4807692307693" y="153" as="sourcePoint"/>
                        <mxPoint x="444.01923076923094" y="190.00000000000023" as="targetPoint"/>
                    </mxGeometry>
                </mxCell>
                <mxCell id="69" value="" style="shape=image;verticalLabelPosition=bottom;labelBackgroundColor=#ffffff;verticalAlign=top;aspect=fixed;imageAspect=0;image=data:image/png,iVBORw0KGgoAAAANSUhEUgAAAW8AAACJCAMAAADUiEkNAAAAxlBMVEWHvkBUgDn////+/v6Gvj9UgDiAujJ+uS7y+OpRfTiEvDqCuzZRfDh8uCqOwVCIwD/M47H6/fdLei3A3J/8/flFdiWDuT9KeSt4rD3v9uVbiTl+sz7G36lklDpcijn2+vDo8tyoznmBoHCfymzN2cbh7tDd5dhrnDu21o/S5ruNwUm62Jez1YrR5bnb68hypTy0xqpji0qVxVrk6+Cds5DG1L6Oqn90lmF/nm6UxFikzXOcyWdxk12s0YCyxaiMp31mjVCZsYoTsl0nAAAUFElEQVR4nO1dDXuiOhNFDKAgIkq1VluwrW3Fj3btdner6378/z/1JjMT1JZQtXZ37/vk3OfeW0jE5GQ4mZkENAwNDQ0NDQ0NDQ0NDQ0NDQ0NDQ0NjcPAWGAEHOKvv92W/28wzjIz2u3eKaDXa7cNIzA06x8AbtWBcXp/e3FmVWsSJevs/Pa0Z4hh0DgeONft0/MzTnS19AKCfOv8XnBuaEs/CiTZyLX1knFBerV0cdvTfB8B3LR755bgOo9oglUSInNxb3Bd0ZwfCsEc1+yL6isRyee8WrNue1rJDwZnLtiVbQJnvB387Xb/JyGEIehdcCEp0JE8xku3hmZ8X4CUtM+r+7JdsqxS7ew+0JHQnuDu9qlVK5wklajWzrWo7InAON9bStaoWfc67NwZME+e1Q7kmmz8VlxGU74D+EwZ3JcON24y8Yu2Djh3A2O37zNuAata7Wm63wa3bnZeFX7Ge1G1TvWs+TbETPlurgW4hWvC3wRrX9Teb9tIeKl2b2gNL4AIKi/2id/fhLbwAoB2H8u6EVpSChEcwTPZhFWyejryUSK4Py7dIkl71v7bvfpXwYJe7Z1RTg5qFzolngcu3u2zo86VCKt2qyU8F8GRHO8XfJeqWsLzIMQ7X00g2CwWmqLS6pmm+yUYM9pHl+6McK0or8FdwRzCxanmCaBoODpQo6PKutT0+sMrnCrmyqZ1+XB9w/FJTXjnMy+/fvr8vZNbx6peaEF5gUARxzcvHyMTUMD3yRNWCZ8UlXSY+QLBab5vcvLbNMscZrmQ7wcTqpnmY76kcAPXFr4BkabKI8r6Joy7DFwW842DUjavm7m+CmQKNSSU5v1EZO+iJ0B59LWZa+BnOsrMwFigMO9mhGxfPz08KNnmIv/z4eHp0YRx+XGSW6WmFXwDvfzJ0voqrNaMLjsnnXzXA6uVmp3OSfMJpOcmn+/queY7Q3CucE4+Czkxr/Mp3OAbKn+NROVYVamnBYXADAVHnQfg+0euJL9m/RF8wl/5N8IeaasPHRjFxYv8p2O3RzVbljowXZpfduK7ZN0IQYm+KlzwM/aWTwjFjOXVU32Svf6Tf9xVfFP+aZZ9TvEdL1r04u/c9haAGUwhJ6XmNfB9uRvfnWth39E3hdBX3xYUZju+HRiu4/seVPYchCtryBOvz7jQd3EUpKnh+Y63zZDn+LyO5/uOnYFRoWuL6vxrt8sEjy6/IBZ5m83kwE/z8sDw7H0IV2eqmtcwBe7Dd1nJ95uC4jrz8awbh2EYJ6PxnHfInTT6Ao050eut8MTGmUFWhZNdn0yTShiZUZxMV2zNAv9zNUriMIq7w0ZL4s6lEbvqDytxFMbDUVbWehaFng1FokWNlSuvl7bgK1NuqfZiVuENHm0M7ttQpU4O4Zs7Myr7vihqAzO8+ig01wiHd6nTooMWddUdmi/OODM68eyywSyESMGE/5YrE1dKhTfumq+RAEvechjlFA443/Zio6jcvcPrsXoMJ1b8Hhxh+XAfvtWLxMfk2ypV22pBYbxvFZkUkBFWhS1NjFpnDtaqV4hLc0Y99GJxpmwmdpqY64/i/6Y+EuSO6FQZgPSVkW9nElKoZmZl4pILlzn9Fy0a2i62AhIcU8eewXXKe/Kt3HJCfH/bje8TofZq+y4Oedw5dHij08ByF9ms0J2/MCUj3RRmKXcZQQWzYXtDNGwggMDvc37Tu0TLhvHDvCT49lamTFjgSTkYCw8+Jm8WvGy3zqcJMeriTNfvy2vuwzdTLzQQ3wqPI4dvsG/V6BQJOHOH5pomysZwxZxBj8shyrU9po7zGGwJZ7wxVjBXrrsoZ4OF5moK1uBTxGQYh5K/MrLkPldogKI4psGACuHCb1C97ANlJFbyHU3iQ/gOTpV7j9HDM7/vxncHsiiR0nssEnB3mVlu3I3JhG3m3REDd9AhnyxO0LmCM84ITTAUpSjuYTfpZswNucz7Mdlnvx48j6SNx6MJn/CcPo1fchWkkwgvVo6Grbl3lRn8cDSL5cEdvyDwLW8maMxefBdsOrmB6xZkqrb4/gGN+NxRlFsFW1FsSWxladteuhAdHNvclOg+H4GAByDfs1j0vCHOMNZF8xs6oDZmt780uDOXSlrjOXOvyDi5mjPXHpLee45wOb0KHsbcZzf8O7pZrnzbZQkZfpLaju32yc4rLunJOpG3r33fquTb+gQRY9Tcje/mb4xGldF/QUhvt4jvsS/ExbOfx0md17a72LXEFnHFPBQcTBKgQTgobp24bDnCj25MDBt8CNdNiPCVZ/fx0uEVeHgTLAhBj9x5hF87hfFMYyS1YXM/k+QtSWGOBHVBXSe+cQDCWevurjV2VR3L4Vs5XVrfISPyWLh0ucH3tzeyLQWrPHafenDn4wkeU4g+8G6iyQk6QV3K5rMQ9XKcGjDbob4Al2wdk4DS40B4I7JMmGHdZzmwMF4Dmg1Rr+whja4r/EwcyYGHUWRKIz+yjQ2+p6kP0dHudBtMucun8xva9vRGuiobnk+RuMNC5e1Qu1fz3SJzqlzJ0BEDzBXRs+BnnangIIS65Qgc5CnKQTfNeoP/42aMn2s40mfvwnVZSgz3nXU1szzA+Zic+YRXi+WV6YryqxKpJ+Kw7+ydW2GG0npPbsCefr+aABWfaN6AKf7sKKoUOCiCVzTksJVudII9k8ct4hsngQ77K2iWOOMmWDoSBgYOInNdz7Ntf7XJdxn5Zpt8N17zzZBvQbK7iHD8Z46LcCbkmtbXfPMZfX++27nmbTU7uEpmPn5CMsV+h4xZflDaPIASSt/G30+4iecQXpAD5zFbmZwDM2zU/XV6hOY3PiOxFG9ovw7VZr7B5nGZVBorO3a6HEzGrVZ/Jvn2N/TEyPTEFIrPjxb5esIDUqJ0thggFnQHcuHP+B47B+QOe7nuyfdvv2+w++hvNL8+PP2Wj/U0v/54+CwZ5QdPeGBZML+a0Y/Lrzk+jVW9UDvgXsPM4j4zHC09YhyFRkQa6GiAXYNT0nXIPPk5mNM8tmgkYbQOEYlvkvJosTlfRjBErB6R7wIKDCIiPCDPoUlWeny0Zi5CgStX+ic4Ax+Hb7ELAr7kBuS480UkCq6xTB6gUf8UBzdg4c3LSHb282svvJBvxkk017FKOEpteLeHdMyjK9fG8Hrgwm0vplCfBikRk6yzHGYxYhb3cL7Jh+Gi47vMdVBdynEd1MUhry80uDT4GDxx2/d8cijXLp+8Ih82OV/GzwdkxhXJ70fMNxDd1qcQjh9g6rQi6AE4fnySxBK4C04uIwqoc/guFfFtuOlQxhfYszuc9F0ypjsRsPNvCusMPDzuObg+iY3QYn4jyBSJmV1D8A1REpyYLtMrqTOUkbFX5Ed3V/X5mFiNuF80MvPB+fakfVfqx+QbLvlDGjFGYbA42bwkyxcUoxPID1A/Ol8fkYJc+z4rysi6Rj+mQUZw4WCQAESf2Em7gowuD8JxwuzbXgh/CG3AgImSJFEYRmWp3/wWiSmIDOOIxpTSAfxb6fI8ng9NuoAYI8l32XyBjG/z+HxzX9BqZnxzPGZ884Y8djYOiO+TbwfzzW/u+VTeuHBN4fqSJ80nTB9p44YpohShsjbNfcIV9+LMwZneLa7m0v/m3Bn2hJikNKCJsSuNcmVLpcVsyYuknoihe4G1nhzGt0K/KZp9pOXIR+gLSkgT7fAz+n0bB8JDIdHbW09ArP20H2diINwtfnqOW45i4eKVIZIkchNu5+ipOCIUoqlzxHgw7tqTDb4Ne5lIMlEwWn7GlOtOQ1NmuiBbwlwZZ8HAsFd4F98sn++biLyzG/BJmj/F3UbzZfNnbK7ny0tRAjJvNX8SV1G0P9+0slXvk6Xyf+ZikczDnGyUjk1p9LjIENfJd+HGaktd7oJjw7wtvpmPqShShOFiM91h15MsV8Y5bAm61/mFxiu+jffxbbTz+LY+/fr5RBIOc2Tz048fP6UD3uEHX2SU3/z1+eFnc9MfjH98/ZU3hjvtQWF+HbOA/N+JSF/7FNgtIbqMRWbWgQjTXI7AMIUWUxCJ5m9sxPOCb+ZB8sNMKnGlO+xfOVt0DyAd2e3GcSUZTQJalhxQYmUrE0X0vs++FfGO1Tz5jDcyKorV6TSzso0DWWJBghB0/deJlbtts4jvzYV2XxprS3SWQnpzBZQm4EQP4ItW6Nsl4tOUnypPkB9b6i/o9whuuzEXEcZDoi2nWaRdhTaJs67j4DI1v14d43k+mFupP3Ai38e3Op7vUDyvSrC+GCGI53n9S1X9gniepa6XNT5Lzo5FX91nTD734bZvQJgyB81pdaF9I3vNt4l845KX9E+uQEwq6eaWh2wTxBDERMyfW+TZQ1K12WZ2wfXS9/JtGGe5ewc5f50v5gH5qlhZvTBflaxcH5Ophi+DOyQPEiC845CMxcjdhUzKCAdCnMr0BPTa9SmGh2OhxfwC4cKnrRO2JxeSISMAa5H+uhDK7JVJwc8U92Zwrh1/Mevb7+W7MB+bOYE70C1cQ/6Peniqp8p0g4hW4tFkmXq2l95FqA3ms0tlgry4nEXukKzjIxvhKWas58toxWx3PpNupeQb5t9ZH7c6jCdXqY2vH8IMjBAUuU3ibvAsplyG6w3ik8mqzt3G+nzV74ow4N18K9cbSrVHcDZ2Wy7O1huU8mP1lOk0G3c+hN1kmHSlZXVp7loSXyKkwwwRuB90EoJ5byz9QTNJEhnfIN/eoLxeLSYXpds3SJcTc71mj4hnS/7F7sLMFpkrSdKt4M30fr6Nt9bTinZ+bwJ3G5Zfp28litbTZP4bVQD7T3MfsykXbWJS0IB1nSycFIlsxtIoIxy9m8SUfIP7SOvMWVhjxjARMrEIR2mXdRkPXbmqtWQElbXqKHwHis3I6wlwt/Vii9aLfyrXi8/VzQP7LhMrJqrBCBMozPBlzE2rMkJM48xUB7hw3KfsCUUu/aso03OWzl6G5bxKRa75x+Z2qUyue32Z/ZLnj8L3P7EfAua0zDjhr2km9lRYLpezDKgzlOF5BZd2mNjuk23bMaeeCJPKZN/e4jWnJqasPP95ZuaMhohr7LtonReUrUK+8asP0xPFww2lP7nfx10kkbQtQDLws3cts6XcVRZn49OX3FCiz3C9WcZXOHaYjSsGDd/1GqG5kSGRd5AZPTPDWSVbWoLslsn1d9JGvB4fUyz/i02DtJ/NjA/kO/dJ1w2+j7N/sGSp97Px6cld3o14ACjAY8CFsRVm9BuIbB3cvaIz0yw2Z+5gBJ8ftuZivqtD8cqpD0mEQ7h4KMdOuJteP0IFi6AwDDMFEetJkF6YTJMYWzVrDQyYwVNqTj81DkHwp/ZrFmcHXdv3jLRer6eMO8HbZbZ0jtdpJrkx2Vv7mJ4T8I8buLJvMCyGNTIR7oyveGH9eb4Yy9io5U8ofzUdPEPhcjWiCTKhy/KAFFqVphvR56vW7AXWPlOsAO/H98kb+5HV0c5GW7IQ8MC+MBmQ0wXEahrsgOJxPOab+Ljizk6zn5LjuOQhDZZ5co0nW5ffbtURwK+kehHHAfvt1XzvsN/+OP3ZjsthH4lYlVmPIOx7FfZNS+5Tf13fnZtb9v0R+BPPk1h/6QlMt5u5btnX+1PSbwz0pZOJ9Sm4Gh6yFLwjlCkr+bxUZ5fXLOHut3KkeF6quoucHL9rDJdvwuWaP+85BBuO6rSo0FjbN6MduRDxfBhUIb18HnCnBGHzKzxdEKteWlOw2/7jwDzS6plIUoFC20t61iHxyb7Dui3LDLkzf/6B9m2wnsJkv6Nv+mWX959YKPb/2POuzohcvORubgTG82I8lH7+yh/Q7pOwf5UGRrqcjOQe8KH/9qUPBlM98Go1Q8whPD49qV61Aab9++npGoMKVbqq1vs7PzKAu/BRPwTkWnTZHHnMkHuOuQwKZJFN5UPNG2fMPDrFiwhkwubt9xWIWyH/fQViq8/feSMHc2amzDVlkaIQjITT7Q1k2suUHYAT8WKP/dyHNUth4N+jLI301vtPsOJTvnn/vRfOMGO2keQjss0Id7bad+WtQgznk7r3wQ85i10RuW+van6hlM2bfGPq4Ub1vpm/90o85rUqG/kTSHyM5h5ERMxeDMsbuRUR9Scr92PFBBqlWOWxOt9uzB31hFvNg8I5qZ3+xdefMLs+Hmb5WzOZ3dWdbEHNswfT9bOZ8bB15X20lmCjerlbiMVu40+fH56un64L3xd2ff309OOyqXBiqud/oguqngnGfduYLwaDxTL16FnxddbF94PnK1H2HNi+8/G2jRBZQoXn3Ow0OYredWo1AYc86fqnABvxXdfNa8lW2R9qKiw7KBbqd/ndo4Ia/6E3yP45u2DqtOy7YJX02wfzwYOeD3ilqX7lugKMtY/72w2Emv5tLwUKVo4PhWXV9IvClAjuj27g1Yt/wDf5V8HUTuFhsKqW/vmGIhzjp9O2CO/pX60rAGfm4piE6/civwFcPD6WpIhfbtAoxLEIh6BUW/ebYPA7JUcwcEv/HuNuYPjGn3dSbtXO9I827AZO+Cm3zvcQbpWq59rv3h1B732/F12t3eofENgHPPKpHp69qp319Ovs9wMzDvtJdD5GVa4lOkW1NwLjtrqvZyhq1y7+5mLlfxlB+7y6XwLL4lJyH+gQ/kAExunFXozXrFvtBb4HQdA7L+2k49wF5Lbd1lLyTgRB+/asWlO+Y5bAvZnzUyY2rWnC3wkWGL1zS1Cuijp52QU37cDQbB8HjOvK/Tk381p1m3V+pmZd3J4KsjWOBthsx8389Pb84gxcbMG7ZZ1dnN+ftrnmaLP+CHAzD4x2u9frnZ6e8v+2hbxrrj8YOCce9Rk5jTfBdFCjoaGhoaGhoaGhoaGhoaGhoXEM/A8DIJ9c8l7MVwAAAABJRU5ErkJggg==;" parent="1" vertex="1">
                    <mxGeometry x="468.25" y="504.99" width="67" height="25.01" as="geometry"/>
                </mxCell>
                <mxCell id="70" value="" style="endArrow=none;dashed=1;html=1;" parent="1" source="19" target="69" edge="1">
                    <mxGeometry width="50" height="50" relative="1" as="geometry">
                        <mxPoint x="511.75" y="40" as="sourcePoint"/>
                        <mxPoint x="510.6973684210527" y="60" as="targetPoint"/>
                    </mxGeometry>
                </mxCell>
                <mxCell id="72" value="" style="shape=image;verticalLabelPosition=bottom;labelBackgroundColor=#ffffff;verticalAlign=top;aspect=fixed;imageAspect=0;image=data:image/png,iVBORw0KGgoAAAANSUhEUgAAAW8AAACJCAMAAADUiEkNAAAAxlBMVEWHvkBUgDn////+/v6Gvj9UgDiAujJ+uS7y+OpRfTiEvDqCuzZRfDh8uCqOwVCIwD/M47H6/fdLei3A3J/8/flFdiWDuT9KeSt4rD3v9uVbiTl+sz7G36lklDpcijn2+vDo8tyoznmBoHCfymzN2cbh7tDd5dhrnDu21o/S5ruNwUm62Jez1YrR5bnb68hypTy0xqpji0qVxVrk6+Cds5DG1L6Oqn90lmF/nm6UxFikzXOcyWdxk12s0YCyxaiMp31mjVCZsYoTsl0nAAAUFElEQVR4nO1dDXuiOhNFDKAgIkq1VluwrW3Fj3btdner6378/z/1JjMT1JZQtXZ37/vk3OfeW0jE5GQ4mZkENAwNDQ0NDQ0NDQ0NDQ0NDQ0NDQ0NjcPAWGAEHOKvv92W/28wzjIz2u3eKaDXa7cNIzA06x8AbtWBcXp/e3FmVWsSJevs/Pa0Z4hh0DgeONft0/MzTnS19AKCfOv8XnBuaEs/CiTZyLX1knFBerV0cdvTfB8B3LR755bgOo9oglUSInNxb3Bd0ZwfCsEc1+yL6isRyee8WrNue1rJDwZnLtiVbQJnvB387Xb/JyGEIehdcCEp0JE8xku3hmZ8X4CUtM+r+7JdsqxS7ew+0JHQnuDu9qlVK5wklajWzrWo7InAON9bStaoWfc67NwZME+e1Q7kmmz8VlxGU74D+EwZ3JcON24y8Yu2Djh3A2O37zNuAata7Wm63wa3bnZeFX7Ge1G1TvWs+TbETPlurgW4hWvC3wRrX9Teb9tIeKl2b2gNL4AIKi/2id/fhLbwAoB2H8u6EVpSChEcwTPZhFWyejryUSK4Py7dIkl71v7bvfpXwYJe7Z1RTg5qFzolngcu3u2zo86VCKt2qyU8F8GRHO8XfJeqWsLzIMQ7X00g2CwWmqLS6pmm+yUYM9pHl+6McK0or8FdwRzCxanmCaBoODpQo6PKutT0+sMrnCrmyqZ1+XB9w/FJTXjnMy+/fvr8vZNbx6peaEF5gUARxzcvHyMTUMD3yRNWCZ8UlXSY+QLBab5vcvLbNMscZrmQ7wcTqpnmY76kcAPXFr4BkabKI8r6Joy7DFwW842DUjavm7m+CmQKNSSU5v1EZO+iJ0B59LWZa+BnOsrMwFigMO9mhGxfPz08KNnmIv/z4eHp0YRx+XGSW6WmFXwDvfzJ0voqrNaMLjsnnXzXA6uVmp3OSfMJpOcmn+/queY7Q3CucE4+Czkxr/Mp3OAbKn+NROVYVamnBYXADAVHnQfg+0euJL9m/RF8wl/5N8IeaasPHRjFxYv8p2O3RzVbljowXZpfduK7ZN0IQYm+KlzwM/aWTwjFjOXVU32Svf6Tf9xVfFP+aZZ9TvEdL1r04u/c9haAGUwhJ6XmNfB9uRvfnWth39E3hdBX3xYUZju+HRiu4/seVPYchCtryBOvz7jQd3EUpKnh+Y63zZDn+LyO5/uOnYFRoWuL6vxrt8sEjy6/IBZ5m83kwE/z8sDw7H0IV2eqmtcwBe7Dd1nJ95uC4jrz8awbh2EYJ6PxnHfInTT6Ao050eut8MTGmUFWhZNdn0yTShiZUZxMV2zNAv9zNUriMIq7w0ZL4s6lEbvqDytxFMbDUVbWehaFng1FokWNlSuvl7bgK1NuqfZiVuENHm0M7ttQpU4O4Zs7Myr7vihqAzO8+ig01wiHd6nTooMWddUdmi/OODM68eyywSyESMGE/5YrE1dKhTfumq+RAEvechjlFA443/Zio6jcvcPrsXoMJ1b8Hhxh+XAfvtWLxMfk2ypV22pBYbxvFZkUkBFWhS1NjFpnDtaqV4hLc0Y99GJxpmwmdpqY64/i/6Y+EuSO6FQZgPSVkW9nElKoZmZl4pILlzn9Fy0a2i62AhIcU8eewXXKe/Kt3HJCfH/bje8TofZq+y4Oedw5dHij08ByF9ms0J2/MCUj3RRmKXcZQQWzYXtDNGwggMDvc37Tu0TLhvHDvCT49lamTFjgSTkYCw8+Jm8WvGy3zqcJMeriTNfvy2vuwzdTLzQQ3wqPI4dvsG/V6BQJOHOH5pomysZwxZxBj8shyrU9po7zGGwJZ7wxVjBXrrsoZ4OF5moK1uBTxGQYh5K/MrLkPldogKI4psGACuHCb1C97ANlJFbyHU3iQ/gOTpV7j9HDM7/vxncHsiiR0nssEnB3mVlu3I3JhG3m3REDd9AhnyxO0LmCM84ITTAUpSjuYTfpZswNucz7Mdlnvx48j6SNx6MJn/CcPo1fchWkkwgvVo6Grbl3lRn8cDSL5cEdvyDwLW8maMxefBdsOrmB6xZkqrb4/gGN+NxRlFsFW1FsSWxladteuhAdHNvclOg+H4GAByDfs1j0vCHOMNZF8xs6oDZmt780uDOXSlrjOXOvyDi5mjPXHpLee45wOb0KHsbcZzf8O7pZrnzbZQkZfpLaju32yc4rLunJOpG3r33fquTb+gQRY9Tcje/mb4xGldF/QUhvt4jvsS/ExbOfx0md17a72LXEFnHFPBQcTBKgQTgobp24bDnCj25MDBt8CNdNiPCVZ/fx0uEVeHgTLAhBj9x5hF87hfFMYyS1YXM/k+QtSWGOBHVBXSe+cQDCWevurjV2VR3L4Vs5XVrfISPyWLh0ucH3tzeyLQWrPHafenDn4wkeU4g+8G6iyQk6QV3K5rMQ9XKcGjDbob4Al2wdk4DS40B4I7JMmGHdZzmwMF4Dmg1Rr+whja4r/EwcyYGHUWRKIz+yjQ2+p6kP0dHudBtMucun8xva9vRGuiobnk+RuMNC5e1Qu1fz3SJzqlzJ0BEDzBXRs+BnnangIIS65Qgc5CnKQTfNeoP/42aMn2s40mfvwnVZSgz3nXU1szzA+Zic+YRXi+WV6YryqxKpJ+Kw7+ydW2GG0npPbsCefr+aABWfaN6AKf7sKKoUOCiCVzTksJVudII9k8ct4hsngQ77K2iWOOMmWDoSBgYOInNdz7Ntf7XJdxn5Zpt8N17zzZBvQbK7iHD8Z46LcCbkmtbXfPMZfX++27nmbTU7uEpmPn5CMsV+h4xZflDaPIASSt/G30+4iecQXpAD5zFbmZwDM2zU/XV6hOY3PiOxFG9ovw7VZr7B5nGZVBorO3a6HEzGrVZ/Jvn2N/TEyPTEFIrPjxb5esIDUqJ0thggFnQHcuHP+B47B+QOe7nuyfdvv2+w++hvNL8+PP2Wj/U0v/54+CwZ5QdPeGBZML+a0Y/Lrzk+jVW9UDvgXsPM4j4zHC09YhyFRkQa6GiAXYNT0nXIPPk5mNM8tmgkYbQOEYlvkvJosTlfRjBErB6R7wIKDCIiPCDPoUlWeny0Zi5CgStX+ic4Ax+Hb7ELAr7kBuS480UkCq6xTB6gUf8UBzdg4c3LSHb282svvJBvxkk017FKOEpteLeHdMyjK9fG8Hrgwm0vplCfBikRk6yzHGYxYhb3cL7Jh+Gi47vMdVBdynEd1MUhry80uDT4GDxx2/d8cijXLp+8Ih82OV/GzwdkxhXJ70fMNxDd1qcQjh9g6rQi6AE4fnySxBK4C04uIwqoc/guFfFtuOlQxhfYszuc9F0ypjsRsPNvCusMPDzuObg+iY3QYn4jyBSJmV1D8A1REpyYLtMrqTOUkbFX5Ed3V/X5mFiNuF80MvPB+fakfVfqx+QbLvlDGjFGYbA42bwkyxcUoxPID1A/Ol8fkYJc+z4rysi6Rj+mQUZw4WCQAESf2Em7gowuD8JxwuzbXgh/CG3AgImSJFEYRmWp3/wWiSmIDOOIxpTSAfxb6fI8ng9NuoAYI8l32XyBjG/z+HxzX9BqZnxzPGZ884Y8djYOiO+TbwfzzW/u+VTeuHBN4fqSJ80nTB9p44YpohShsjbNfcIV9+LMwZneLa7m0v/m3Bn2hJikNKCJsSuNcmVLpcVsyYuknoihe4G1nhzGt0K/KZp9pOXIR+gLSkgT7fAz+n0bB8JDIdHbW09ArP20H2diINwtfnqOW45i4eKVIZIkchNu5+ipOCIUoqlzxHgw7tqTDb4Ne5lIMlEwWn7GlOtOQ1NmuiBbwlwZZ8HAsFd4F98sn++biLyzG/BJmj/F3UbzZfNnbK7ny0tRAjJvNX8SV1G0P9+0slXvk6Xyf+ZikczDnGyUjk1p9LjIENfJd+HGaktd7oJjw7wtvpmPqShShOFiM91h15MsV8Y5bAm61/mFxiu+jffxbbTz+LY+/fr5RBIOc2Tz048fP6UD3uEHX2SU3/z1+eFnc9MfjH98/ZU3hjvtQWF+HbOA/N+JSF/7FNgtIbqMRWbWgQjTXI7AMIUWUxCJ5m9sxPOCb+ZB8sNMKnGlO+xfOVt0DyAd2e3GcSUZTQJalhxQYmUrE0X0vs++FfGO1Tz5jDcyKorV6TSzso0DWWJBghB0/deJlbtts4jvzYV2XxprS3SWQnpzBZQm4EQP4ItW6Nsl4tOUnypPkB9b6i/o9whuuzEXEcZDoi2nWaRdhTaJs67j4DI1v14d43k+mFupP3Ai38e3Op7vUDyvSrC+GCGI53n9S1X9gniepa6XNT5Lzo5FX91nTD734bZvQJgyB81pdaF9I3vNt4l845KX9E+uQEwq6eaWh2wTxBDERMyfW+TZQ1K12WZ2wfXS9/JtGGe5ewc5f50v5gH5qlhZvTBflaxcH5Ophi+DOyQPEiC845CMxcjdhUzKCAdCnMr0BPTa9SmGh2OhxfwC4cKnrRO2JxeSISMAa5H+uhDK7JVJwc8U92Zwrh1/Mevb7+W7MB+bOYE70C1cQ/6Peniqp8p0g4hW4tFkmXq2l95FqA3ms0tlgry4nEXukKzjIxvhKWas58toxWx3PpNupeQb5t9ZH7c6jCdXqY2vH8IMjBAUuU3ibvAsplyG6w3ik8mqzt3G+nzV74ow4N18K9cbSrVHcDZ2Wy7O1huU8mP1lOk0G3c+hN1kmHSlZXVp7loSXyKkwwwRuB90EoJ5byz9QTNJEhnfIN/eoLxeLSYXpds3SJcTc71mj4hnS/7F7sLMFpkrSdKt4M30fr6Nt9bTinZ+bwJ3G5Zfp28litbTZP4bVQD7T3MfsykXbWJS0IB1nSycFIlsxtIoIxy9m8SUfIP7SOvMWVhjxjARMrEIR2mXdRkPXbmqtWQElbXqKHwHis3I6wlwt/Vii9aLfyrXi8/VzQP7LhMrJqrBCBMozPBlzE2rMkJM48xUB7hw3KfsCUUu/aso03OWzl6G5bxKRa75x+Z2qUyue32Z/ZLnj8L3P7EfAua0zDjhr2km9lRYLpezDKgzlOF5BZd2mNjuk23bMaeeCJPKZN/e4jWnJqasPP95ZuaMhohr7LtonReUrUK+8asP0xPFww2lP7nfx10kkbQtQDLws3cts6XcVRZn49OX3FCiz3C9WcZXOHaYjSsGDd/1GqG5kSGRd5AZPTPDWSVbWoLslsn1d9JGvB4fUyz/i02DtJ/NjA/kO/dJ1w2+j7N/sGSp97Px6cld3o14ACjAY8CFsRVm9BuIbB3cvaIz0yw2Z+5gBJ8ftuZivqtD8cqpD0mEQ7h4KMdOuJteP0IFi6AwDDMFEetJkF6YTJMYWzVrDQyYwVNqTj81DkHwp/ZrFmcHXdv3jLRer6eMO8HbZbZ0jtdpJrkx2Vv7mJ4T8I8buLJvMCyGNTIR7oyveGH9eb4Yy9io5U8ofzUdPEPhcjWiCTKhy/KAFFqVphvR56vW7AXWPlOsAO/H98kb+5HV0c5GW7IQ8MC+MBmQ0wXEahrsgOJxPOab+Ljizk6zn5LjuOQhDZZ5co0nW5ffbtURwK+kehHHAfvt1XzvsN/+OP3ZjsthH4lYlVmPIOx7FfZNS+5Tf13fnZtb9v0R+BPPk1h/6QlMt5u5btnX+1PSbwz0pZOJ9Sm4Gh6yFLwjlCkr+bxUZ5fXLOHut3KkeF6quoucHL9rDJdvwuWaP+85BBuO6rSo0FjbN6MduRDxfBhUIb18HnCnBGHzKzxdEKteWlOw2/7jwDzS6plIUoFC20t61iHxyb7Dui3LDLkzf/6B9m2wnsJkv6Nv+mWX959YKPb/2POuzohcvORubgTG82I8lH7+yh/Q7pOwf5UGRrqcjOQe8KH/9qUPBlM98Go1Q8whPD49qV61Aab9++npGoMKVbqq1vs7PzKAu/BRPwTkWnTZHHnMkHuOuQwKZJFN5UPNG2fMPDrFiwhkwubt9xWIWyH/fQViq8/feSMHc2amzDVlkaIQjITT7Q1k2suUHYAT8WKP/dyHNUth4N+jLI301vtPsOJTvnn/vRfOMGO2keQjss0Id7bad+WtQgznk7r3wQ85i10RuW+van6hlM2bfGPq4Ub1vpm/90o85rUqG/kTSHyM5h5ERMxeDMsbuRUR9Scr92PFBBqlWOWxOt9uzB31hFvNg8I5qZ3+xdefMLs+Hmb5WzOZ3dWdbEHNswfT9bOZ8bB15X20lmCjerlbiMVu40+fH56un64L3xd2ff309OOyqXBiqud/oguqngnGfduYLwaDxTL16FnxddbF94PnK1H2HNi+8/G2jRBZQoXn3Ow0OYredWo1AYc86fqnABvxXdfNa8lW2R9qKiw7KBbqd/ndo4Ia/6E3yP45u2DqtOy7YJX02wfzwYOeD3ilqX7lugKMtY/72w2Emv5tLwUKVo4PhWXV9IvClAjuj27g1Yt/wDf5V8HUTuFhsKqW/vmGIhzjp9O2CO/pX60rAGfm4piE6/civwFcPD6WpIhfbtAoxLEIh6BUW/ebYPA7JUcwcEv/HuNuYPjGn3dSbtXO9I827AZO+Cm3zvcQbpWq59rv3h1B732/F12t3eofENgHPPKpHp69qp319Ovs9wMzDvtJdD5GVa4lOkW1NwLjtrqvZyhq1y7+5mLlfxlB+7y6XwLL4lJyH+gQ/kAExunFXozXrFvtBb4HQdA7L+2k49wF5Lbd1lLyTgRB+/asWlO+Y5bAvZnzUyY2rWnC3wkWGL1zS1Cuijp52QU37cDQbB8HjOvK/Tk381p1m3V+pmZd3J4KsjWOBthsx8389Pb84gxcbMG7ZZ1dnN+ftrnmaLP+CHAzD4x2u9frnZ6e8v+2hbxrrj8YOCce9Rk5jTfBdFCjoaGhoaGhoaGhoaGhoaGhoXEM/A8DIJ9c8l7MVwAAAABJRU5ErkJggg==;" parent="1" vertex="1">
                    <mxGeometry x="435" y="750" width="67" height="25.01" as="geometry"/>
                </mxCell>
                <mxCell id="75" value="" style="endArrow=none;dashed=1;html=1;exitX=0.5;exitY=1;exitDx=0;exitDy=0;" parent="1" source="72" target="26" edge="1">
                    <mxGeometry width="50" height="50" relative="1" as="geometry">
                        <mxPoint x="531.75" y="770" as="sourcePoint"/>
                        <mxPoint x="402.4473684210527" y="810" as="targetPoint"/>
                    </mxGeometry>
                </mxCell>
                <mxCell id="77" value="&lt;font style=&quot;font-size: 24px&quot;&gt;Architecture&lt;/font&gt;" style="text;html=1;strokeColor=none;fillColor=none;align=center;verticalAlign=middle;whiteSpace=wrap;rounded=0;" parent="1" vertex="1">
                    <mxGeometry x="136" y="-100" width="40" height="20" as="geometry"/>
                </mxCell>
                <mxCell id="78" value="" style="verticalLabelPosition=bottom;aspect=fixed;html=1;verticalAlign=top;strokeColor=none;align=center;outlineConnect=0;shape=mxgraph.citrix.laptop_2;" vertex="1" parent="1">
                    <mxGeometry y="553.48" width="85.88" height="64.04" as="geometry"/>
                </mxCell>
                <mxCell id="79" value="Internet" style="outlineConnect=0;dashed=0;verticalLabelPosition=bottom;verticalAlign=top;align=center;html=1;shape=mxgraph.aws3.internet_2;fillColor=#D2D3D3;gradientColor=none;" vertex="1" parent="1">
                    <mxGeometry x="-30" y="60" width="79.5" height="54" as="geometry"/>
                </mxCell>
            </root>
        </mxGraphModel>
    </diagram>
</mxfile>